<svg xmlns="http://www.w3.org/2000/svg" xmlns:xlink="http://www.w3.org/1999/xlink" viewBox="0 0 530.4 137.3" xmlns:v="https://vecta.io/nano"><g fill="#bfa683"><path d="M87.3 105.9H65.6l-8.8.2L74 91.4l6.3-5.7c-1.1-5.4-1.6-11.1-1.6-17 0-19.3 5.8-36 15.8-48.4C86.3 7.8 71 .2 51.6.2 14.5.2 1.1 27.7 1.1 46.1v3.6h33.5v-3.6c0-3.7 1.2-15.8 17-15.8 10.3 0 16.1 5.2 16.1 14.2 0 6.6-5.6 15.1-15.7 23.9L2.8 113.7l3.5 21.5h98.9v-7.9c-7.4-5.6-13.4-12.8-17.9-21.4zm103.1-85.4C179.4 7.2 164.2.2 146.5.2 111.5.2 87 28.4 87 68.7c0 40.2 24.5 68.3 59.5 68.3 34.7 0 59.9-28.7 59.9-68.3 0-18.7-5.7-35.8-16-48.2zm-43.9 87.6c-15 0-25.5-16.2-25.5-39.3 0-23.3 10.5-39.5 25.5-39.5 15.2 0 25.8 16.2 25.8 39.5 0 19.5-8.9 39.3-25.8 39.3zm139.1-36.3v-18l-13.7-25h10.9l7.4 15.5h.1l8.1-15.5h10.3l-14.4 25.3v17.8h-8.7zm29.4-14c.6 4.4 3.5 7.7 8.1 7.7 4.2 0 6.3-1.7 8.4-4.8l5.7 3.9c-3.7 5.3-7.8 7.9-14.8 7.9-9.8 0-16.4-6.8-16.4-16.5 0-9.8 7.1-17.3 16.4-17.3 9 0 15.6 6.3 15.6 14.9 0 1.3-.2 2.8-.4 4.1H315zm14.2-5.9c-.2-3.9-2.9-6.3-6.5-6.3-4.2 0-6.5 2.6-7.4 6.3h13.9zm34.9 19.9l-.7-2.8c-2.1 2.6-5.3 3.5-8.8 3.5-6 0-11.6-3.6-11.6-10.3 0-7.9 7.4-10.5 14.1-10.5 1.8 0 3.8.2 5.8.7V52c0-4.1-1.7-6.5-6.4-6.5-3.7 0-6.9 1.4-9.8 2.8l-2.3-6.3c4.1-2 9.1-3.3 13.9-3.3 9 0 13.3 5.2 13.3 13.6v19.4h-7.5zm-1.2-14c-1.7-.4-3.1-.6-4.4-.6-3.2 0-6.9 1.2-6.9 5 0 2.8 2.3 4.3 4.9 4.3 2.5 0 4.6-1.1 6.5-2.8v-5.9zm25.1-14c1.8-3 4.4-5 7.6-5 1.6 0 3 .3 4.2.7l-2.1 7.6c-.9-.5-2-.7-3.1-.7-2.5 0-4.8 1.4-6.1 3.6v21.9h-8.7V39.5h7.6l.6 4.3z"/><use xlink:href="#B"/><path d="M443.3 35.3v-7.4h8.7v7.4h-8.7zm0 36.9V39.8h8.7v32.3h-8.7zm24.8-32.4l.7 4.4c2.6-3.6 6.5-5.2 10-5.2s6.6 1.7 8.6 4.2c2.5 3.3 2.9 7.4 2.9 12V72h-8.7V55.8c0-2.4-.1-5.1-1-6.9-.8-1.6-2.4-2.3-4.3-2.3-2.6 0-5.4 1.5-7 4.1v21.5h-8.7V39.8h7.5zM292.2 90.2c4.1 0 8.5.7 11.7 2.8 3.3 2.2 5 5.5 5 9.4 0 3.6-1.8 6.7-5.4 8.3 4.4 1.5 7.2 5.2 7.2 9.8 0 5.1-3 9.1-7.7 11.1-3.3 1.4-7.4 1.7-11.3 1.7h-10.8v-43h11.3zm-2.5 17.5h2.5c5 0 8-1.7 8-5 0-2-.8-3.2-1.8-4-1.7-1.1-4.1-1.1-6.9-1.1h-1.7v10.1zm0 18.1h2c2.6 0 5.3 0 7.1-.9 1.5-.8 2.5-2.1 2.5-4.3 0-3.6-2.3-5.8-6.7-5.8h-4.9v11zm50.5 7.4l-.7-4.4c-2.6 3.6-6.5 5.2-10 5.2s-6.6-1.7-8.6-4.2c-2.5-3.3-2.9-7.4-2.9-12V101h8.7v16.4c0 2.4.1 5.1 1 6.9.8 1.6 2.4 2.3 4.3 2.3 2.6 0 5.4-1.5 7-4.1V101h8.7v32.3h-7.5z"/><use xlink:href="#B" x="-46.6" y="61.4"/><path d="M385.8 96.4V89h8.7v7.4h-8.7zm0 36.8v-32.3h8.7v32.3h-8.7zm24.8-32.3l.7 4.4c2.6-3.6 6.5-5.2 10-5.2s6.6 1.7 8.6 4.2c2.5 3.3 2.9 7.4 2.9 12v16.8H424v-16.4c0-2.4-.1-5.1-1-6.9-.8-1.6-2.4-2.3-4.3-2.3-2.6 0-5.4 1.5-7 4.1v21.5H403v-32.3h7.6zm37 18.3c.6 4.4 3.5 7.7 8.1 7.7 4.2 0 6.3-1.7 8.4-4.8l5.7 3.9c-3.7 5.3-7.8 7.9-14.8 7.9-9.8 0-16.4-6.8-16.4-16.5 0-9.8 7.1-17.3 16.4-17.3 9 0 15.6 6.3 15.6 14.9 0 1.3-.2 2.8-.4 4.1h-22.6zm14.3-6c-.2-3.9-2.9-6.3-6.5-6.3-4.2 0-6.5 2.6-7.4 6.3h13.9z"/><use xlink:href="#B" x="74.3" y="61.4"/><use xlink:href="#B" x="103.9" y="61.4"/><path d="M242.8 66.7v-21h-18.1v20.9h-10.4c-.1 6.3-.6 12.4-2 18.1h12.4v20.9h18.1V84.7h20.9v-18h-20.9z"/></g><defs ><path id="B" d="M420.4 48.3c-1.7-1.5-3.9-2.7-6.4-2.7-1.7 0-3.1.9-3.1 2.5 0 2 2.4 3.1 5.1 4.2 4.2 1.7 9.5 3.8 9.5 10 0 7.1-6.1 10.4-12.4 10.4-5 0-9.5-2-13-5.5l5-5.2c2.5 2.4 4.5 3.8 7.6 3.8 1.8 0 4.1-.9 4.1-2.8 0-2.3-3-3.3-6.1-4.7-3.9-1.7-8.1-3.9-8.1-9.5 0-6.6 5.7-9.9 11.6-9.9 4.3 0 8.2 1.4 11.2 4.2l-5 5.2z"/></defs></svg>